<svg version="1" xmlns="http://www.w3.org/2000/svg" width="341.333" height="341.333" viewBox="0 0 256.000000 256.000000"><path d="M39.7 10.5C31.4 13.7 24 20.6 20.2 29c-2.1 4.4-2.6 7-2.6 13.5 0 12.4 4.8 21.4 14.9 28.1 13.9 9.2 31.8 7.2 43.1-4.8 6.1-6.5 8.6-12.5 9.2-21.8.3-6 0-8.7-1.8-13.2-2.6-7.1-9.2-14.5-16.2-18.3-4.6-2.5-6.5-3-14.3-3.2-6.1-.2-10.2.2-12.8 1.2zM193.7 10.4c-6 2.2-11.3 6.2-15.6 11.6-5.3 6.6-6.6 10.9-6.6 21 0 9.9 2 15.2 8.1 21.9 16.4 18.3 45.8 13.9 56.1-8.4 3.9-8.5 3.9-19.5.1-27.7-3.2-6.9-9.7-13.6-16.3-16.8-6.1-3-19.7-3.9-25.8-1.6zM113.4 44.9C105 47.3 99 51 91.7 58.4 82.4 67.7 78.3 77 77.3 90.5c-1.6 23.2 12.4 44 34.7 51.7 8.9 3.1 23.9 3.1 32.3 0 14.7-5.3 26.3-16.7 31.8-31.1 2.7-7 3.4-21.2 1.5-29.3-4.1-17.6-18.8-32.6-36.7-37.3-7.2-2-20-1.8-27.5.4zM10.2 79.5C3.7 85 0 100.6.5 121.5c.2 10.4 1.7 14 7.6 18.1 5.6 3.9 11.3 5.1 23.7 5.3l11.4.2 5.4-5.1c6.5-6.1 15.8-10.7 23.6-11.6 3.2-.4 5.8-.8 5.8-1.1 0-.2-1.3-2.9-2.9-6.1-5-10.1-6.5-15.9-6.5-26.3l-.1-9.6-4.5 1.2c-2.5.7-7.9 1.3-12.1 1.4-8.5.2-17.8-2.3-28.9-7.9-7.2-3.6-9-3.7-12.8-.5zM232.5 80.2c-14.8 7.7-30.2 9.7-43.2 5.7-.9-.3-1.4 2.3-1.7 9.6-.4 11.8-3.4 21.6-9 30-1.1 1.6-1.6 2.7-1.2 2.4 1.3-1.2 14.3 1.9 19.7 4.6 2.9 1.5 7.6 5 10.5 7.7l5.3 5 12.9-.4c11.6-.3 13.3-.6 18.5-3.2 4-1.9 6.6-4.1 8.5-6.9 2.5-3.7 2.7-5 2.8-14.1.3-19.9-3.2-35.3-9.1-40.5-4.4-3.8-6.4-3.8-14 .1z"/><path d="M72 137.2c-15.9 2.8-27.7 16.6-33.5 39.1-3.6 14.2-5.2 34.6-3.4 44.2 2 10.5 8.3 18.6 18.3 23.2l6.1 2.8 65.8.3c71.5.3 73 .2 81.5-5.2 5.6-3.5 10.9-10.1 12.8-15.9 3.2-9.8 2.3-31.8-2-49-6.3-24.6-18.8-38.1-37.3-40-5-.5-5.6-.3-12.8 4.4-18.1 11.8-32 15.5-48.4 13-9.4-1.5-17.5-4.8-28.4-11.8-9.3-5.8-11.4-6.4-18.7-5.1z"/></svg>